# xmcd
#
# Track frame offsets:
#	150
#	16845
#	32417
#	52624
#	66087
#	86442
#	101255
#	116503
#	131662
#	149566
#	166480
#	180427
#	196692
#	218458
#	230849
#	247449
#	267167
#	285077
#	294073
#
# Disc length: 4111 seconds
#
# Revision: 0
# Processed by: cddbd v1.5.2PL0 Copyright (c) Steve Scherf et al.
# Submitted via: EasyCDDAExtractor 5.0.5.1
#
DISCID=fa100d13
DTITLE=Various Artist -  HOTT COUNTRY # 131
DYEAR=1900
DGENRE=Country
TTITLE0=Kenny Chesney - Beer In Mexico
TTITLE1=John Mellancamp - Our Country (Country Edit)
TTITLE2=Jim Cuddy - MARRIED AGAIN
TTITLE3=George Canyon - HAPPY MAN
TTITLE4=Carrie Underwood - WASTED
TTITLE5=Jason Blaine - WHAT I CAN'T FORGET
TTITLE6=Sugarland - SETTLIN'
TTITLE7=After Tuesday - ANY MORE BEAUTIFUL
TTITLE8=John Waite and Alison Krauss - Missing You
TTITLE9=Jack Ingram - LIPS OF AN ANGEL
TTITLE10=Ennis Sisters - Holding On
TTITLE11=Megan Morrison - CACTUS FLOWER
TTITLE12=Willie Nelson - HALLELUJAH
TTITLE13=Blaine Larsen - SPOKEN LIKE A MAN
TTITLE14=Sarah Buxton - INNOCENCE
TTITLE15=Prairie Oyster - ONE KISS
TTITLE16=George Canyon - SOME PEOPLE CHANGE
TTITLE17=Jerry Lee Lewis Ft John Fogerty - TRAVELIN' BAND
TTITLE18=Faith Hill - LET'S GO TO VEGAS
EXTD=September 2006\n
EXTT0=
EXTT1=
EXTT2=
EXTT3=
EXTT4=
EXTT5=
EXTT6=
EXTT7=
EXTT8=
EXTT9=
EXTT10=
EXTT11=
EXTT12=
EXTT13=
EXTT14=
EXTT15=
EXTT16=
EXTT17=
EXTT18=
PLAYORDER=
